<svg width="280" height="280" viewBox="0 0 280 280" fill="none" xmlns="http://www.w3.org/2000/svg">
<rect width="280" height="280" fill="#94A3B8"/>
<path d="M77.45 163C76.6433 163 75.9833 162.743 75.47 162.23C74.9567 161.717 74.7 161.057 74.7 160.25V88.75C74.7 87.9433 74.9567 87.2833 75.47 86.77C75.9833 86.2567 76.6433 86 77.45 86H89.11C90.3567 86 91.2367 86.2933 91.75 86.88C92.3367 87.3933 92.7033 87.7967 92.85 88.09L119.69 130.44V88.75C119.69 87.9433 119.947 87.2833 120.46 86.77C120.973 86.2567 121.633 86 122.44 86H135.64C136.447 86 137.107 86.2567 137.62 86.77C138.133 87.2833 138.39 87.9433 138.39 88.75V160.25C138.39 160.983 138.133 161.643 137.62 162.23C137.107 162.743 136.447 163 135.64 163H123.87C122.697 163 121.817 162.707 121.23 162.12C120.717 161.533 120.387 161.13 120.24 160.91L93.4 120.21V160.25C93.4 161.057 93.1433 161.717 92.63 162.23C92.1167 162.743 91.4567 163 90.65 163H77.45Z" fill="white"/>
<path d="M152.45 201C151.643 201 150.983 200.743 150.47 200.23C149.957 199.717 149.7 199.057 149.7 198.25V126.75C149.7 125.943 149.957 125.283 150.47 124.77C150.983 124.257 151.643 124 152.45 124H166.97C167.703 124 168.327 124.257 168.84 124.77C169.427 125.283 169.72 125.943 169.72 126.75V184.39H202.94C203.747 184.39 204.407 184.683 204.92 185.27C205.507 185.783 205.8 186.443 205.8 187.25V198.25C205.8 199.057 205.507 199.717 204.92 200.23C204.407 200.743 203.747 201 202.94 201H152.45Z" fill="white"/>
</svg>
