<svg width="280" height="280" viewBox="0 0 280 280" fill="none" xmlns="http://www.w3.org/2000/svg">
<g clip-path="url(#clip0_82_23)">
<path d="M128 281C85.3333 281 43.1667 281 1 281C1 187.667 1 94.3333 1 1C94.3333 1 187.667 1 281 1C281 94.3333 281 187.667 281 281C230.167 281 179.333 281 128 281ZM97.264 158.801C91.2023 163.188 85.051 167.458 79.1179 172.012C76.278 174.192 73.4259 177.52 75.5413 180.915C77.1046 183.423 80.78 185.356 83.8456 186.023C89.093 187.164 94.1067 185.231 98.232 181.798C113.702 168.924 129.122 155.988 144.476 142.975C149.373 138.825 149.228 134.073 144.217 129.943C130.098 118.308 116.108 106.499 101.616 95.3457C98.2502 92.7556 93.1321 91.744 88.7305 91.4743C86.2877 91.3246 82.4935 93.6917 81.5097 95.9035C80.8139 97.4681 83.6148 100.812 85.2322 103.094C86.1461 104.384 87.832 105.121 89.1553 106.127C99.617 114.076 110.144 121.941 120.507 130.017C126.063 134.348 125.931 137.714 120.364 141.846C112.886 147.396 105.341 152.854 97.264 158.801ZM122.114 197.724C132.534 187.195 142.941 176.653 153.379 166.141C157.95 161.538 161.348 161.291 166.48 165.185C173.242 170.316 179.991 175.465 186.689 180.679C189.878 183.162 193.092 184.67 196.286 180.977C198.959 177.887 198.262 174.055 194.556 170.996C185.44 163.472 176.311 155.963 167.076 148.586C161.102 143.814 156.123 143.938 150.504 148.966C136.485 161.51 122.543 174.138 108.606 186.771C107.387 187.876 106.219 189.147 105.393 190.555C102.497 195.491 104.992 200.845 110.725 200.904C114.307 200.94 117.907 199.122 122.114 197.724ZM141.068 100.439C136.014 95.8497 131.205 90.9415 125.813 86.7906C122.522 84.2575 118.492 82.219 114.485 81.2786C112.446 80.8004 108.879 82.6829 107.631 84.5731C106.9 85.6801 108.792 89.5602 110.497 91.0687C123.467 102.538 136.653 113.762 149.834 124.99C154.994 129.386 160.403 129.416 165.653 125.112C172.733 119.308 179.644 113.296 186.762 107.539C189.478 105.342 191.022 103.057 188.477 100.031C186.16 97.2764 183.38 95.8083 179.826 98.507C174.656 102.432 169.354 106.181 164.105 110.001C158.779 113.876 155.853 113.728 150.857 109.287C147.746 106.521 144.668 103.719 141.068 100.439ZM203.679 156.954C198.392 152.128 193.079 147.329 187.826 142.466C183.107 138.097 183.045 136.298 187.365 131.809C191.406 127.61 195.468 123.431 199.557 119.278C201.836 116.964 202.76 114.492 200.251 111.863C197.882 109.38 195.195 108.733 192.364 111.29C185.073 117.877 177.704 124.38 170.518 131.08C167.265 134.113 166.814 138.607 169.851 141.307C179.678 150.043 189.693 158.576 199.842 166.938C202.947 169.496 207.257 167.082 206.993 162.969C206.873 161.087 205.179 159.306 203.679 156.954Z" fill="#3D5AF2"/>
<path d="M97.5443 158.577C105.341 152.854 112.886 147.396 120.364 141.846C125.931 137.714 126.063 134.348 120.507 130.017C110.144 121.941 99.6169 114.076 89.1553 106.127C87.8319 105.121 86.1461 104.384 85.2321 103.094C83.6147 100.812 80.8138 97.4682 81.5096 95.9036C82.4934 93.6917 86.2877 91.3246 88.7304 91.4743C93.1321 91.744 98.2501 92.7557 101.616 95.3457C116.108 106.499 130.098 118.308 144.217 129.943C149.228 134.073 149.372 138.825 144.476 142.975C129.122 155.988 113.702 168.924 98.2319 181.798C94.1067 185.231 89.093 187.165 83.8455 186.023C80.78 185.356 77.1045 183.423 75.5413 180.915C73.4258 177.52 76.2779 174.192 79.1178 172.012C85.0509 167.458 91.2022 163.188 97.5443 158.577Z" fill="white"/>
<path d="M121.807 197.93C117.907 199.122 114.306 200.94 110.724 200.904C104.992 200.845 102.497 195.491 105.393 190.555C106.219 189.147 107.387 187.876 108.605 186.771C122.542 174.138 136.485 161.509 150.503 148.966C156.123 143.938 161.102 143.813 167.076 148.586C176.311 155.962 185.44 163.472 194.556 170.996C198.262 174.054 198.959 177.887 196.286 180.977C193.091 184.67 189.878 183.161 186.688 180.678C179.99 175.465 173.242 170.316 166.48 165.185C161.348 161.291 157.95 161.538 153.379 166.141C142.941 176.653 132.534 187.195 121.807 197.93Z" fill="white"/>
<path d="M141.321 100.686C144.668 103.719 147.746 106.522 150.857 109.287C155.853 113.728 158.779 113.877 164.105 110.001C169.354 106.181 174.656 102.432 179.826 98.507C183.38 95.8083 186.16 97.2764 188.476 100.031C191.022 103.057 189.478 105.342 186.762 107.539C179.644 113.296 172.733 119.308 165.653 125.112C160.403 129.416 154.994 129.386 149.834 124.99C136.653 113.762 123.467 102.538 110.497 91.0687C108.792 89.5602 106.9 85.6802 107.631 84.5732C108.879 82.683 112.446 80.8004 114.485 81.2787C118.492 82.219 122.522 84.2576 125.813 86.7906C131.205 90.9415 136.014 95.8498 141.321 100.686Z" fill="white"/>
<path d="M203.939 157.217C205.18 159.306 206.873 161.087 206.994 162.969C207.257 167.082 202.947 169.497 199.842 166.938C189.694 158.576 179.679 150.043 169.851 141.307C166.814 138.608 167.265 134.113 170.519 131.08C177.704 124.38 185.073 117.877 192.364 111.29C195.195 108.733 197.882 109.38 200.251 111.863C202.761 114.493 201.836 116.964 199.558 119.278C195.469 123.431 191.406 127.61 187.365 131.809C183.046 136.298 183.108 138.097 187.826 142.466C193.079 147.33 198.392 152.128 203.939 157.217Z" fill="white"/>
</g>
<defs>
<clipPath id="clip0_82_23">
<rect width="280" height="280" fill="white"/>
</clipPath>
</defs>
</svg>
