<svg width="280" height="280" viewBox="0 0 280 280" fill="none" xmlns="http://www.w3.org/2000/svg">
<rect width="280" height="280" fill="#222222"/>
<path d="M78.0811 132.433C65.8168 117.729 67.7534 98.0905 82.251 87.723C96.3674 77.6281 116.156 81.628 125.245 96.4133C133.031 109.079 130.22 125.477 118.646 134.911C106.523 144.792 90.1442 143.877 78.0811 132.433ZM101.121 125.581C102.378 125.25 103.687 125.047 104.883 124.565C110.733 122.211 114.23 116.006 113.261 109.846C112.321 103.868 107.596 99.1929 102.11 98.8046C92.59 98.1309 89.1054 101.307 86.7809 107.726C83.5586 116.626 89.9972 124.881 101.121 125.581Z" fill="white"/>
<path d="M149.278 181.395C164.926 178.815 178.389 172.453 190.184 162.454C191.705 161.165 193.394 159.838 195.238 159.217C198.885 157.986 202.858 159.757 204.513 163.052C206.379 166.767 205.923 170.532 202.6 172.861C194.081 178.832 185.805 185.56 176.451 189.847C150.163 201.896 123.299 201.646 96.5482 190.661C95.7438 190.331 94.9396 189.991 94.1665 189.595C89.3986 187.152 87.6514 182.721 89.7485 178.437C91.7984 174.249 96.0825 172.769 100.867 174.88C110.114 178.959 119.694 181.828 129.813 182.15C136.164 182.351 142.541 181.735 149.278 181.395Z" fill="white"/>
<path d="M190.217 104.602C189.456 107.403 188.449 109.894 188.351 112.421C188.092 119.103 188.287 125.801 188.187 132.491C188.101 138.262 184.898 141.819 180.018 141.786C175.137 141.752 172.069 138.198 172.04 132.354C172.005 125.373 171.931 118.387 172.131 111.41C172.586 95.5005 183.8 83.5367 199.441 82.0723C205.451 81.5095 209.493 84.2652 209.959 89.2441C210.409 94.0501 207.156 97.4821 201.322 98.0245C196.656 98.4583 193.032 100.475 190.217 104.602Z" fill="white"/>
<path d="M142.162 141.77C136.313 140.477 134.29 138.194 134.23 132.85C134.154 126.026 134.138 119.2 134.246 112.377C134.325 107.348 137.703 103.776 142.162 103.698C146.799 103.618 150.211 107.269 150.262 112.58C150.327 119.404 150.323 126.23 150.225 133.053C150.147 138.459 148.124 140.645 142.162 141.77Z" fill="white"/>
</svg>
